# xmcd
#
# Track frame offsets: 
#        150
#        13687
#        31308
#        52225
#        84891
#        100987
#        118792
#        152292
#        191814
#
# Disc length: 2840 seconds
#
# Revision: 0
# Processed by: cddbd v1.5.2PL0 Copyright (c) Steve Scherf et al.
# Submitted via: ExactAudioCopyFreeDBPlugin 1.0
#
DISCID=6b0b1609
DTITLE=Mitch Hillford - Music From The Front
DYEAR=2013
DGENRE=Blues
TTITLE0=Terabyte Blues (feat. Richie Arndt)
TTITLE1=Tearing Me Down
TTITLE2=Rolling In
TTITLE3=When The Colors Fade
TTITLE4=I Am A Pilgrim
TTITLE5=Hoochie
TTITLE6=Paradise Of Souls
TTITLE7=Tapir (feat. Katharina Maschmeyer)
TTITLE8=Visions From The Front
EXTD=
EXTT0=
EXTT1=
EXTT2=
EXTT3=
EXTT4=
EXTT5=
EXTT6=
EXTT7=
EXTT8=
PLAYORDER=
